# xmcd
#
# Track frame offsets: 
#        150
#        13652
#        25677
#        39934
#        53511
#        68122
#        87984
#        99768
#        112183
#
# Disc length: 1705 seconds
#
# Revision: 0
# Processed by: cddbd v1.5.2PL0 Copyright (c) Steve Scherf et al.
# Submitted via: ExactAudioCopy v1.3
#
DISCID=6206a709
DTITLE=Black Cat Bones - Blues For Now
DYEAR=2016
DGENRE=Electric Blues
TTITLE0=That Was Then
TTITLE1=After All This Time
TTITLE2=Judge and Jury
TTITLE3='til the Darkness Goes Away
TTITLE4=Nail in My Coffin
TTITLE5=Premonition
TTITLE6=Bait N' Switch
TTITLE7=You Can't Run
TTITLE8=Autopsy
EXTD=
EXTT0=
EXTT1=
EXTT2=
EXTT3=
EXTT4=
EXTT5=
EXTT6=
EXTT7=
EXTT8=
PLAYORDER=
